<?xml version="1.0" encoding="UTF-8" standalone="no"?>
<!-- Created with Inkscape (http://www.inkscape.org/) -->

<svg
   xmlns:dc="http://purl.org/dc/elements/1.1/"
   xmlns:cc="http://creativecommons.org/ns#"
   xmlns:rdf="http://www.w3.org/1999/02/22-rdf-syntax-ns#"
   xmlns:svg="http://www.w3.org/2000/svg"
   xmlns="http://www.w3.org/2000/svg"
   xmlns:sodipodi="http://sodipodi.sourceforge.net/DTD/sodipodi-0.dtd"
   xmlns:inkscape="http://www.inkscape.org/namespaces/inkscape"
   width="744.09448819"
   height="1052.3622047"
   id="svg2"
   version="1.1"
   inkscape:version="0.48.2 r9819"
   sodipodi:docname="errorbars.svg"
   inkscape:export-filename="/home/glavic/Software/Scripte/plot_script/gtkgui/icons/apply.png"
   inkscape:export-xdpi="70.370514"
   inkscape:export-ydpi="70.370514">
  <defs
     id="defs4">
    <marker
       inkscape:stockid="Arrow1Mend"
       orient="auto"
       refY="0.0"
       refX="0.0"
       id="Arrow1Mend"
       style="overflow:visible;">
      <path
         id="path4066"
         d="M 0.0,0.0 L 5.0,-5.0 L -12.5,0.0 L 5.0,5.0 L 0.0,0.0 z "
         style="fill-rule:evenodd;stroke:#000000;stroke-width:1.0pt;marker-start:none;"
         transform="scale(0.4) rotate(180) translate(10,0)" />
    </marker>
    <marker
       inkscape:stockid="Arrow1Send"
       orient="auto"
       refY="0.0"
       refX="0.0"
       id="Arrow1Send"
       style="overflow:visible;">
      <path
         id="path4072"
         d="M 0.0,0.0 L 5.0,-5.0 L -12.5,0.0 L 5.0,5.0 L 0.0,0.0 z "
         style="fill-rule:evenodd;stroke:#000000;stroke-width:1.0pt;marker-start:none;"
         transform="scale(0.2) rotate(180) translate(6,0)" />
    </marker>
    <marker
       inkscape:stockid="Arrow1Lend"
       orient="auto"
       refY="0.0"
       refX="0.0"
       id="Arrow1Lend"
       style="overflow:visible;">
      <path
         id="path4060"
         d="M 0.0,0.0 L 5.0,-5.0 L -12.5,0.0 L 5.0,5.0 L 0.0,0.0 z "
         style="fill-rule:evenodd;stroke:#000000;stroke-width:1.0pt;marker-start:none;"
         transform="scale(0.8) rotate(180) translate(12.5,0)" />
    </marker>
  </defs>
  <sodipodi:namedview
     id="base"
     pagecolor="#ffffff"
     bordercolor="#666666"
     borderopacity="1.0"
     inkscape:pageopacity="0.0"
     inkscape:pageshadow="2"
     inkscape:zoom="0.70710678"
     inkscape:cx="26.306012"
     inkscape:cy="827.01654"
     inkscape:document-units="px"
     inkscape:current-layer="layer1"
     showgrid="true"
     inkscape:window-width="1576"
     inkscape:window-height="973"
     inkscape:window-x="100"
     inkscape:window-y="-4"
     inkscape:window-maximized="1">
    <inkscape:grid
       type="xygrid"
       id="grid2985" />
  </sodipodi:namedview>
  <metadata
     id="metadata7">
    <rdf:RDF>
      <cc:Work
         rdf:about="">
        <dc:format>image/svg+xml</dc:format>
        <dc:type
           rdf:resource="http://purl.org/dc/dcmitype/StillImage" />
        <dc:title></dc:title>
      </cc:Work>
    </rdf:RDF>
  </metadata>
  <g
     inkscape:groupmode="layer"
     id="layer2"
     inkscape:label="Edge"
     style="display:inline">
    <rect
       style="fill:none;stroke:#000000;stroke-width:1;stroke-linecap:round;stroke-linejoin:round;stroke-miterlimit:4;stroke-opacity:1;stroke-dasharray:none;stroke-dashoffset:0"
       id="rect2987"
       width="300"
       height="300"
       x="40"
       y="42.362183" />
  </g>
  <g
     inkscape:label="Main"
     inkscape:groupmode="layer"
     id="layer1"
     style="display:inline">
    <path
       style="fill:none;stroke:#ff5555;stroke-width:6;stroke-linecap:butt;stroke-linejoin:miter;stroke-opacity:1"
       d="m 50,182.36218 20,0 m 0,0 40,-80 60,30 50,-59.999997 60,-20"
       id="path6083"
       inkscape:connector-curvature="0" />
    <g
       id="g6035"
       transform="matrix(0.53333336,0,0,0.53333336,27.333331,109.10235)">
      <path
         transform="translate(-5,9.9999996)"
         d="m 100,127.36218 c 0,8.28427 -6.715729,15 -15,15 -8.284271,0 -15,-6.71573 -15,-15 0,-8.28427 6.715729,-15 15,-15 8.284271,0 15,6.71573 15,15 z"
         sodipodi:ry="15"
         sodipodi:rx="15"
         sodipodi:cy="127.36218"
         sodipodi:cx="85"
         id="path6027"
         style="fill:#ff0000;stroke:#ff0000;stroke-width:6;stroke-linecap:round;stroke-linejoin:round;stroke-miterlimit:4;stroke-opacity:1;stroke-dasharray:none;stroke-dashoffset:0"
         sodipodi:type="arc" />
      <path
         inkscape:connector-curvature="0"
         id="path6029"
         d="M 80,62.362183 80,212.36218"
         style="fill:none;stroke:#ff0000;stroke-width:18.74999906;stroke-linecap:butt;stroke-linejoin:miter;stroke-opacity:1" />
      <path
         sodipodi:nodetypes="cc"
         style="fill:none;stroke:#ff0000;stroke-width:18.74999906;stroke-linecap:butt;stroke-linejoin:miter;stroke-opacity:1"
         d="m 110,62.362183 -60,0"
         id="path6031"
         inkscape:connector-curvature="0" />
      <path
         inkscape:connector-curvature="0"
         id="path6033"
         d="m 110,212.36218 -60,0"
         style="fill:none;stroke:#ff0000;stroke-width:18.74999906;stroke-linecap:butt;stroke-linejoin:miter;stroke-opacity:1"
         sodipodi:nodetypes="cc" />
    </g>
    <path
       style="fill:none;stroke:#000000;stroke-width:16;stroke-linecap:butt;stroke-linejoin:miter;stroke-opacity:1"
       d="M 50,332.36218 330,52.362183"
       id="path6081"
       inkscape:connector-curvature="0"
       sodipodi:nodetypes="cc" />
    <path
       inkscape:connector-curvature="0"
       id="path6085"
       d="m 100,332.36218 20,0 m 0,0 40,-80 60,30 50,-59.99999 60,-20"
       style="fill:none;stroke:#ff0000;stroke-width:6;stroke-linecap:butt;stroke-linejoin:miter;stroke-opacity:1" />
    <g
       transform="matrix(0.53333336,0,0,0.53333336,67.333331,29.10235)"
       id="g6097">
      <path
         sodipodi:type="arc"
         style="fill:#ff0000;stroke:#ff0000;stroke-width:6;stroke-linecap:round;stroke-linejoin:round;stroke-miterlimit:4;stroke-opacity:1;stroke-dasharray:none;stroke-dashoffset:0"
         id="path6099"
         sodipodi:cx="85"
         sodipodi:cy="127.36218"
         sodipodi:rx="15"
         sodipodi:ry="15"
         d="m 100,127.36218 c 0,8.28427 -6.715729,15 -15,15 -8.284271,0 -15,-6.71573 -15,-15 0,-8.28427 6.715729,-15 15,-15 8.284271,0 15,6.71573 15,15 z"
         transform="translate(-5,9.9999996)" />
      <path
         style="fill:none;stroke:#ff0000;stroke-width:18.75;stroke-linecap:butt;stroke-linejoin:miter;stroke-opacity:1"
         d="M 80,62.362183 80,212.36218"
         id="path6101"
         inkscape:connector-curvature="0" />
      <path
         inkscape:connector-curvature="0"
         id="path6103"
         d="m 110,62.362183 -60,0"
         style="fill:none;stroke:#ff0000;stroke-width:18.75;stroke-linecap:butt;stroke-linejoin:miter;stroke-opacity:1"
         sodipodi:nodetypes="cc" />
      <path
         sodipodi:nodetypes="cc"
         style="fill:none;stroke:#ff0000;stroke-width:18.75;stroke-linecap:butt;stroke-linejoin:miter;stroke-opacity:1"
         d="m 110,212.36218 -60,0"
         id="path6105"
         inkscape:connector-curvature="0" />
    </g>
    <g
       id="g6107"
       transform="matrix(0.53333336,0,0,0.53333336,127.33333,59.10235)">
      <path
         transform="translate(-5,9.9999996)"
         d="m 100,127.36218 c 0,8.28427 -6.715729,15 -15,15 -8.284271,0 -15,-6.71573 -15,-15 0,-8.28427 6.715729,-15 15,-15 8.284271,0 15,6.71573 15,15 z"
         sodipodi:ry="15"
         sodipodi:rx="15"
         sodipodi:cy="127.36218"
         sodipodi:cx="85"
         id="path6109"
         style="fill:#ff0000;stroke:#ff0000;stroke-width:6;stroke-linecap:round;stroke-linejoin:round;stroke-miterlimit:4;stroke-opacity:1;stroke-dasharray:none;stroke-dashoffset:0"
         sodipodi:type="arc" />
      <path
         inkscape:connector-curvature="0"
         id="path6111"
         d="M 80,62.362183 80,212.36218"
         style="fill:none;stroke:#ff0000;stroke-width:18.75;stroke-linecap:butt;stroke-linejoin:miter;stroke-opacity:1" />
      <path
         sodipodi:nodetypes="cc"
         style="fill:none;stroke:#ff0000;stroke-width:18.75;stroke-linecap:butt;stroke-linejoin:miter;stroke-opacity:1"
         d="m 110,62.362183 -60,0"
         id="path6113"
         inkscape:connector-curvature="0" />
      <path
         inkscape:connector-curvature="0"
         id="path6115"
         d="m 110,212.36218 -60,0"
         style="fill:none;stroke:#ff0000;stroke-width:18.75;stroke-linecap:butt;stroke-linejoin:miter;stroke-opacity:1"
         sodipodi:nodetypes="cc" />
    </g>
    <g
       transform="matrix(0.53333336,0,0,0.53333336,177.33333,-0.89764998)"
       id="g6117">
      <path
         sodipodi:type="arc"
         style="fill:#ff0000;stroke:#ff0000;stroke-width:6;stroke-linecap:round;stroke-linejoin:round;stroke-miterlimit:4;stroke-opacity:1;stroke-dasharray:none;stroke-dashoffset:0"
         id="path6119"
         sodipodi:cx="85"
         sodipodi:cy="127.36218"
         sodipodi:rx="15"
         sodipodi:ry="15"
         d="m 100,127.36218 c 0,8.28427 -6.715729,15 -15,15 -8.284271,0 -15,-6.71573 -15,-15 0,-8.28427 6.715729,-15 15,-15 8.284271,0 15,6.71573 15,15 z"
         transform="translate(-5,9.9999996)" />
      <path
         style="fill:none;stroke:#ff0000;stroke-width:18.75;stroke-linecap:butt;stroke-linejoin:miter;stroke-opacity:1"
         d="M 80.000002,99.862181 80,212.36218"
         id="path6121"
         inkscape:connector-curvature="0"
         sodipodi:nodetypes="cc" />
      <path
         sodipodi:nodetypes="cc"
         style="fill:none;stroke:#ff0000;stroke-width:18.75;stroke-linecap:butt;stroke-linejoin:miter;stroke-opacity:1"
         d="m 110,212.36218 -60,0"
         id="path6125"
         inkscape:connector-curvature="0" />
    </g>
  </g>
</svg>
