<?xml version="1.0" encoding="UTF-8" standalone="no"?>
<!-- Created with Inkscape (http://www.inkscape.org/) -->

<svg
   xmlns:dc="http://purl.org/dc/elements/1.1/"
   xmlns:cc="http://creativecommons.org/ns#"
   xmlns:rdf="http://www.w3.org/1999/02/22-rdf-syntax-ns#"
   xmlns:svg="http://www.w3.org/2000/svg"
   xmlns="http://www.w3.org/2000/svg"
   xmlns:sodipodi="http://sodipodi.sourceforge.net/DTD/sodipodi-0.dtd"
   xmlns:inkscape="http://www.inkscape.org/namespaces/inkscape"
   width="744.09448819"
   height="1052.3622047"
   id="svg2"
   version="1.1"
   inkscape:version="0.48.2 r9819"
   sodipodi:docname="keytopright.svg"
   inkscape:export-filename="/home/glavic/Software/Scripte/plot_script/gtkgui/icons/keytopright.png"
   inkscape:export-xdpi="74.950798"
   inkscape:export-ydpi="74.950798">
  <defs
     id="defs4">
    <marker
       inkscape:stockid="Arrow1Mend"
       orient="auto"
       refY="0.0"
       refX="0.0"
       id="Arrow1Mend"
       style="overflow:visible;">
      <path
         id="path4066"
         d="M 0.0,0.0 L 5.0,-5.0 L -12.5,0.0 L 5.0,5.0 L 0.0,0.0 z "
         style="fill-rule:evenodd;stroke:#000000;stroke-width:1.0pt;marker-start:none;"
         transform="scale(0.4) rotate(180) translate(10,0)" />
    </marker>
    <marker
       inkscape:stockid="Arrow1Send"
       orient="auto"
       refY="0.0"
       refX="0.0"
       id="Arrow1Send"
       style="overflow:visible;">
      <path
         id="path4072"
         d="M 0.0,0.0 L 5.0,-5.0 L -12.5,0.0 L 5.0,5.0 L 0.0,0.0 z "
         style="fill-rule:evenodd;stroke:#000000;stroke-width:1.0pt;marker-start:none;"
         transform="scale(0.2) rotate(180) translate(6,0)" />
    </marker>
    <marker
       inkscape:stockid="Arrow1Lend"
       orient="auto"
       refY="0.0"
       refX="0.0"
       id="Arrow1Lend"
       style="overflow:visible;">
      <path
         id="path4060"
         d="M 0.0,0.0 L 5.0,-5.0 L -12.5,0.0 L 5.0,5.0 L 0.0,0.0 z "
         style="fill-rule:evenodd;stroke:#000000;stroke-width:1.0pt;marker-start:none;"
         transform="scale(0.8) rotate(180) translate(12.5,0)" />
    </marker>
    <marker
       style="overflow:visible"
       id="Arrow1Mendl"
       refX="0"
       refY="0"
       orient="auto"
       inkscape:stockid="Arrow1Mendl">
      <path
         inkscape:connector-curvature="0"
         transform="matrix(-0.4,0,0,-0.4,-4,0)"
         style="fill:#008000;fill-rule:evenodd;stroke:#008000;stroke-width:1pt;marker-start:none"
         d="M 0,0 5,-5 -12.5,0 5,5 0,0 z"
         id="path6804" />
    </marker>
  </defs>
  <sodipodi:namedview
     id="base"
     pagecolor="#ffffff"
     bordercolor="#666666"
     borderopacity="1.0"
     inkscape:pageopacity="0.0"
     inkscape:pageshadow="2"
     inkscape:zoom="1.4142136"
     inkscape:cx="241.49577"
     inkscape:cy="861.12245"
     inkscape:document-units="px"
     inkscape:current-layer="g7060"
     showgrid="true"
     inkscape:window-width="1576"
     inkscape:window-height="973"
     inkscape:window-x="100"
     inkscape:window-y="-4"
     inkscape:window-maximized="1">
    <inkscape:grid
       type="xygrid"
       id="grid2985" />
  </sodipodi:namedview>
  <metadata
     id="metadata7">
    <rdf:RDF>
      <cc:Work
         rdf:about="">
        <dc:format>image/svg+xml</dc:format>
        <dc:type
           rdf:resource="http://purl.org/dc/dcmitype/StillImage" />
        <dc:title></dc:title>
      </cc:Work>
    </rdf:RDF>
  </metadata>
  <g
     inkscape:groupmode="layer"
     id="layer2"
     inkscape:label="Edge"
     style="display:none">
    <rect
       style="fill:none;stroke:#000000;stroke-width:1;stroke-linecap:round;stroke-linejoin:round;stroke-miterlimit:4;stroke-opacity:1;stroke-dasharray:none;stroke-dashoffset:0"
       id="rect2987"
       width="300"
       height="300"
       x="40"
       y="42.362183"
       inkscape:export-xdpi="71.759331"
       inkscape:export-ydpi="71.759331"
       inkscape:export-filename="/home/glavic/Software/Scripte/plot_script/gtkgui/icons/errorbars.png" />
  </g>
  <g
     inkscape:label="Main"
     inkscape:groupmode="layer"
     id="layer1"
     style="display:inline">
    <g
       id="g7054"
       transform="matrix(1.0688518,0,0,1.0688518,-15.508144,2.9521823)">
      <rect
         y="46.227177"
         x="60"
         height="252.60753"
         width="270"
         id="rect7056"
         style="fill:#ffffff;stroke:none" />
      <path
         style="fill:none;stroke:#00ff00;stroke-width:3;stroke-linecap:butt;stroke-linejoin:miter;stroke-opacity:1"
         d="m 166.5,279.86218 c 0,0 49.34671,6.64283 71.75,-1.75 8.92254,-3.34261 14.95704,-11.83271 22,-18.24999 0.43556,-0.39687 1.0245,-0.7056 1.25,-1.25 0.0319,-0.077 -0.0319,-0.17301 0,-0.25 0.0451,-0.10888 0.2049,-0.14112 0.25,-0.25 0.0638,-0.15398 -0.0638,-0.34602 0,-0.5 0.0451,-0.10888 0.18804,-0.14975 0.25,-0.25 0.13854,-0.22417 0.18186,-0.49544 0.25,-0.75 2.15512,-8.05157 -0.99213,-18.70634 5,-24.50001 3.94947,-3.81867 11.39083,-5.31301 16.25,-2.75 18.99619,10.01972 8.64226,47.35356 27,58.50001 6.06135,3.68033 21.25,-1 21.25,-1"
         id="path7172"
         inkscape:connector-curvature="0"
         sodipodi:nodetypes="caaaaaaaaaaac"
         transform="matrix(1.511843,0,0,1.511843,-181.89488,-242.0381)" />
      <path
         style="fill:none;stroke:#0000ff;stroke-width:3;stroke-linecap:butt;stroke-linejoin:miter;stroke-opacity:1"
         d="m 166.25,255.36218 c 0,0 25.2777,17.87803 39.75,17.5 11.28835,-0.29486 18.97704,-15.90903 30.25,-15.24999 38.04631,2.22428 95.40099,63.01488 95.40099,63.01488"
         id="path7170"
         inkscape:connector-curvature="0"
         sodipodi:nodetypes="caac"
         transform="matrix(1.511843,0,0,1.511843,-181.89488,-242.0381)" />
      <path
         style="fill:none;stroke:#ff0000;stroke-width:4.34873056;stroke-linecap:butt;stroke-linejoin:miter;stroke-opacity:1"
         d="m 70,222.36218 c 0,0 82.96441,-3.02291 110,-27.57975 17.26244,-15.67974 -3.00056,-57.23981 20,-64.35275 15.79685,-4.88518 23.44588,29.35737 40,27.57975 25.85836,-2.77673 23.97438,-55.77258 50,-55.15949 16.6612,0.39248 30,36.77299 30,36.77299"
         id="path7058"
         inkscape:connector-curvature="0"
         sodipodi:nodetypes="caaaac" />
      <g
         id="g7060"
         transform="matrix(1,0,0,1.3449012,0,-54.016503)">
        <rect
           y="82.362183"
           x="70"
           height="170"
           width="250"
           id="rect7062"
           style="fill:none;stroke:#000000;stroke-width:4;stroke-linecap:round;stroke-linejoin:round;stroke-miterlimit:4;stroke-opacity:1;stroke-dasharray:none;stroke-dashoffset:0" />
        <path
           inkscape:connector-curvature="0"
           id="path7064"
           d="m 270,81.492613 0,180.869567"
           style="fill:none;stroke:#000000;stroke-width:2;stroke-linecap:butt;stroke-linejoin:miter;stroke-opacity:1"
           sodipodi:nodetypes="cc" />
        <path
           style="fill:none;stroke:#000000;stroke-width:2;stroke-linecap:butt;stroke-linejoin:miter;stroke-opacity:1"
           d="m 230,81.492613 0,180.869567"
           id="path7066"
           inkscape:connector-curvature="0"
           sodipodi:nodetypes="cc" />
        <path
           inkscape:connector-curvature="0"
           id="path7068"
           d="m 190,81.492613 0,180.869567"
           style="fill:none;stroke:#000000;stroke-width:2;stroke-linecap:butt;stroke-linejoin:miter;stroke-opacity:1"
           sodipodi:nodetypes="cc" />
        <path
           style="fill:none;stroke:#000000;stroke-width:2;stroke-linecap:butt;stroke-linejoin:miter;stroke-opacity:1"
           d="m 150,81.492613 0,180.869567"
           id="path7070"
           inkscape:connector-curvature="0"
           sodipodi:nodetypes="cc" />
        <path
           inkscape:connector-curvature="0"
           id="path7072"
           d="m 110,81.492613 0,180.869567"
           style="fill:none;stroke:#000000;stroke-width:2;stroke-linecap:butt;stroke-linejoin:miter;stroke-opacity:1"
           sodipodi:nodetypes="cc" />
        <path
           style="fill:none;stroke:#000000;stroke-width:2;stroke-linecap:butt;stroke-linejoin:miter;stroke-opacity:1"
           d="m 70,242.36218 0,20"
           id="path7074"
           inkscape:connector-curvature="0" />
        <path
           inkscape:connector-curvature="0"
           id="path7076"
           d="m 70,242.36218 0,20"
           style="fill:none;stroke:#000000;stroke-width:2;stroke-linecap:butt;stroke-linejoin:miter;stroke-opacity:1" />
        <path
           style="fill:none;stroke:#000000;stroke-width:2;stroke-linecap:butt;stroke-linejoin:miter;stroke-opacity:1"
           d="m 80,252.36218 -20,0"
           id="path7078"
           inkscape:connector-curvature="0" />
        <path
           inkscape:connector-curvature="0"
           id="path7080"
           d="M 319.50935,222.36218 60,222.36218"
           style="fill:none;stroke:#000000;stroke-width:2;stroke-linecap:butt;stroke-linejoin:miter;stroke-opacity:1"
           sodipodi:nodetypes="cc" />
        <path
           style="fill:none;stroke:#000000;stroke-width:2;stroke-linecap:butt;stroke-linejoin:miter;stroke-opacity:1"
           d="M 319.50935,192.36218 60,192.36218"
           id="path7082"
           inkscape:connector-curvature="0"
           sodipodi:nodetypes="cc" />
        <path
           inkscape:connector-curvature="0"
           id="path7084"
           d="M 319.50935,162.36218 60,162.36218"
           style="fill:none;stroke:#000000;stroke-width:2;stroke-linecap:butt;stroke-linejoin:miter;stroke-opacity:1"
           sodipodi:nodetypes="cc" />
        <path
           style="fill:none;stroke:#000000;stroke-width:2;stroke-linecap:butt;stroke-linejoin:miter;stroke-opacity:1"
           d="M 319.50935,132.36218 60,132.36218"
           id="path7086"
           inkscape:connector-curvature="0"
           sodipodi:nodetypes="cc" />
        <path
           inkscape:connector-curvature="0"
           id="path7088"
           d="M 319.50935,102.36218 60,102.36218"
           style="fill:none;stroke:#000000;stroke-width:2;stroke-linecap:butt;stroke-linejoin:miter;stroke-opacity:1"
           sodipodi:nodetypes="cc" />
        <path
           style="fill:none;stroke:#000000;stroke-width:2;stroke-linecap:butt;stroke-linejoin:miter;stroke-opacity:1"
           d="m 310,81.492613 0,180.869567"
           id="path7090"
           inkscape:connector-curvature="0"
           sodipodi:nodetypes="cc" />
      </g>
    </g>
  </g>
</svg>
